<?xml version="1.0" standalone="no"?>
<!DOCTYPE svg PUBLIC "-//W3C//DTD SVG 20010904//EN"
 "http://www.w3.org/TR/2001/REC-SVG-20010904/DTD/svg10.dtd">
<svg version="1.0" xmlns="http://www.w3.org/2000/svg"
 width="400.000000pt" height="256.000000pt" viewBox="0 0 400.000000 256.000000"
 preserveAspectRatio="xMidYMid meet">

<g transform="translate(0.000000,256.000000) scale(0.100000,-0.100000)"
fill="#000000" stroke="none">
<path d="M1049 2263 c-11 -15 -11 -16 1 -5 11 9 264 12 1192 12 1110 0 1178
-1 1187 -17 6 -10 11 -13 11 -8 1 35 -5 35 -1201 35 -1109 0 -1177 -1 -1190
-17z"/>
<path d="M3716 1270 c-47 -14 -76 -50 -121 -146 -45 -96 -89 -144 -131 -144
l-24 0 0 -117 0 -118 44 78 c77 135 226 326 226 290 0 -6 -8 -17 -17 -24 -28
-24 -147 -190 -201 -282 -35 -59 -52 -99 -52 -122 0 -23 -7 -39 -24 -52 -52
-41 -113 -283 -123 -485 l-6 -138 135 0 136 0 16 40 c18 44 21 147 7 197 -8
27 -6 34 12 48 l22 16 -23 -12 c-13 -6 -25 -9 -25 -7 -32 60 -54 119 -52 138
2 14 4 29 4 33 1 4 32 41 70 81 89 94 100 128 76 238 -9 43 -14 86 -10 97 3
10 41 54 84 97 87 89 106 133 91 213 -12 67 -55 98 -114 81z"/>
<path d="M3800 663 c-21 -21 -21 -24 -5 -15 12 6 30 10 40 9 12 -1 20 4 20 13
0 24 -28 20 -55 -7z"/>
<path d="M3156 579 c-5 -31 -21 -55 -71 -109 -77 -82 -87 -104 -88 -190 0 -84
25 -143 94 -215 l52 -55 68 0 69 0 0 114 c0 157 36 337 96 484 4 9 -20 12
-104 12 l-109 0 -7 -41z"/>
<path d="M3689 589 l-24 -20 28 17 c15 9 27 18 27 20 0 8 -8 4 -31 -17z"/>
<path d="M3634 548 l-19 -23 23 19 c12 11 22 21 22 23 0 8 -8 2 -26 -19z"/>
<path d="M3560 485 c-24 -25 -42 -45 -39 -45 3 0 25 20 49 45 24 25 42 45 39
45 -3 0 -25 -20 -49 -45z"/>
<path d="M3932 435 l-23 -12 28 -6 c32 -6 43 -1 43 19 0 17 -17 17 -48 -1z"/>
<path d="M3878 413 c7 -3 16 -2 19 1 4 3 -2 6 -13 5 -11 0 -14 -3 -6 -6z"/>
<path d="M3808 393 c7 -3 16 -2 19 1 4 3 -2 6 -13 5 -11 0 -14 -3 -6 -6z"/>
<path d="M3760 380 c-8 -5 -10 -10 -5 -10 6 0 17 5 25 10 8 5 11 10 5 10 -5 0
-17 -5 -25 -10z"/>
<path d="M3648 334 c-39 -21 -35 -28 5 -8 37 19 44 24 31 24 -5 -1 -21 -8 -36
-16z"/>
</g>
</svg>
