<?xml version="1.0" standalone="no"?>
<!DOCTYPE svg PUBLIC "-//W3C//DTD SVG 20010904//EN"
 "http://www.w3.org/TR/2001/REC-SVG-20010904/DTD/svg10.dtd">
<svg version="1.0" xmlns="http://www.w3.org/2000/svg"
 width="400.000000pt" height="276.000000pt" viewBox="0 0 400.000000 276.000000"
 preserveAspectRatio="xMidYMid meet">

<g transform="translate(0.000000,276.000000) scale(0.100000,-0.100000)"
fill="#000000" stroke="none">
<path d="M2285 2740 c-3 -6 1 -7 9 -4 18 7 21 14 7 14 -6 0 -13 -4 -16 -10z"/>
<path d="M2270 2370 c0 -194 2 -351 5 -348 7 6 7 689 0 696 -3 3 -5 -154 -5
-348z"/>
<path d="M2332 2683 c5 -26 38 -29 38 -4 0 15 -6 21 -21 21 -14 0 -19 -5 -17
-17z"/>
<path d="M2500 2687 c0 -8 -8 -18 -17 -20 -17 -4 -17 -5 0 -6 18 -1 35 25 23
36 -3 4 -6 -1 -6 -10z"/>
<path d="M2415 2670 c-16 -7 -17 -9 -3 -9 9 -1 20 4 23 9 7 11 7 11 -20 0z"/>
<path d="M609 2593 c-13 -16 -12 -17 4 -4 9 7 17 15 17 17 0 8 -8 3 -21 -13z"/>
<path d="M3002 2480 c-18 -11 -35 -27 -39 -36 -3 -8 -11 -13 -17 -11 -8 3 -10
-14 -6 -60 5 -61 8 -67 45 -99 22 -18 51 -43 64 -55 17 -15 22 -17 18 -5 -5
11 1 17 21 22 73 16 113 60 114 128 2 108 -108 172 -200 116z"/>
<path d="M720 2486 c0 -2 8 -10 18 -17 15 -13 16 -12 3 4 -13 16 -21 21 -21
13z"/>
<path d="M2907 2456 c-4 -10 -1 -13 8 -9 8 3 12 9 9 14 -7 12 -11 11 -17 -5z"/>
<path d="M2880 2410 c-6 -11 -8 -20 -6 -20 3 0 10 9 16 20 6 11 8 20 6 20 -3
0 -10 -9 -16 -20z"/>
<path d="M2840 2340 c-6 -11 -8 -20 -6 -20 3 0 10 9 16 20 6 11 8 20 6 20 -3
0 -10 -9 -16 -20z"/>
<path d="M2800 2270 c-6 -11 -8 -20 -6 -20 3 0 10 9 16 20 6 11 8 20 6 20 -3
0 -10 -9 -16 -20z"/>
<path d="M2770 2220 c-6 -11 -7 -20 -2 -20 6 0 12 9 15 20 3 11 3 20 1 20 -2
0 -8 -9 -14 -20z"/>
<path d="M3347 2005 c-6 -13 -67 -15 -525 -15 -400 0 -521 3 -532 13 -12 10
-12 9 -1 -5 13 -17 50 -18 531 -18 451 0 519 2 530 15 7 9 11 18 8 21 -3 3 -8
-2 -11 -11z"/>
<path d="M3424 1855 c-4 -9 -13 -14 -22 -13 -10 2 -17 -5 -19 -17 l-3 -20 9
20 c5 11 10 14 10 8 1 -21 17 -15 29 12 6 14 9 25 6 25 -2 0 -7 -7 -10 -15z"/>
<path d="M3447 1850 c-3 -11 -4 -20 -3 -20 1 0 9 9 19 20 13 15 14 20 3 20 -7
0 -16 -9 -19 -20z"/>
<path d="M1953 1853 c15 -2 37 -2 50 0 12 2 0 4 -28 4 -27 0 -38 -2 -22 -4z"/>
<path d="M2054 1831 c53 -35 53 -59 -1 -75 -14 -5 -33 1 -58 19 -21 14 -51 25
-66 25 -16 0 -29 5 -29 11 0 6 -11 -3 -25 -19 -14 -17 -25 -43 -25 -59 0 -16
-14 -51 -31 -76 -22 -34 -29 -54 -25 -72 5 -18 1 -27 -14 -35 -10 -6 -30 -29
-44 -53 -29 -51 -43 -92 -27 -83 6 4 26 4 45 1 28 -6 33 -10 28 -28 -3 -12
-10 -26 -16 -30 -6 -4 0 -5 14 -3 82 16 192 28 205 22 8 -3 16 -18 16 -33 1
-21 3 -18 8 12 l6 40 62 3 62 3 4 -48 c2 -26 3 -15 1 26 -2 53 -9 87 -26 121
-17 34 -22 55 -16 70 5 15 1 37 -16 73 -32 71 -40 107 -23 107 8 0 22 9 32 20
17 19 17 20 -15 50 -18 16 -37 30 -44 30 -6 0 2 -9 18 -19z m-139 -81 c3 -5
19 -10 35 -10 28 0 60 -22 60 -41 0 -5 6 -9 14 -9 23 0 31 -22 13 -35 -10 -7
-17 -18 -17 -24 0 -7 -11 -23 -25 -36 -29 -30 -89 -34 -117 -8 -24 22 -25 88
0 103 16 11 16 11 0 6 -21 -6 -21 -7 -7 33 11 30 32 41 44 21z m55 -200 c0
-16 -41 -32 -67 -25 -20 5 -23 8 -13 20 14 17 80 21 80 5z"/>
<path d="M1950 1696 c0 -2 7 -7 16 -10 8 -3 12 -2 9 4 -6 10 -25 14 -25 6z"/>
<path d="M2608 1843 c-22 -6 -30 -30 -13 -37 10 -3 12 0 8 12 -6 14 -4 15 8 5
12 -10 15 -8 15 8 0 10 0 18 -1 18 0 -1 -7 -3 -17 -6z"/>
<path d="M3466 1834 c-6 -15 -4 -15 11 -3 15 12 16 12 10 -4 -4 -11 -3 -16 3
-12 15 9 12 35 -4 35 -8 0 -17 -7 -20 -16z"/>
<path d="M855 1820 c-3 -5 -13 -10 -22 -10 -25 0 -83 -66 -83 -95 0 -14 -4
-25 -9 -25 -11 0 -11 -132 0 -146 6 -7 0 -16 -17 -25 -29 -15 -73 -67 -98
-116 -18 -36 -21 -64 -7 -61 18 5 101 -57 96 -70 -3 -8 10 -5 35 9 30 17 40
29 40 47 0 21 2 23 15 12 13 -10 19 -10 33 4 22 19 36 21 26 4 -6 -10 -4 -10
8 0 14 11 17 10 23 -7 3 -12 4 -30 0 -41 -7 -23 -96 -104 -139 -128 -19 -10
-31 -25 -31 -37 0 -12 -8 -21 -20 -23 -44 -7 -51 -13 -32 -23 9 -6 15 -14 12
-19 -3 -5 4 -11 15 -15 16 -5 20 -15 20 -56 0 -27 -3 -49 -6 -49 -3 0 -22 12
-42 27 l-37 27 24 -27 c23 -25 23 -27 7 -52 -17 -26 -40 -31 -65 -16 -17 11
-9 103 14 157 8 19 10 32 5 29 -5 -3 -16 -27 -24 -53 -13 -46 -14 -47 -52 -44
-79 7 -107 33 -162 153 -39 85 -73 124 -119 135 -64 16 -103 -28 -103 -116 0
-68 21 -110 85 -168 l52 -48 -14 -73 c-13 -62 -13 -75 -1 -87 11 -12 13 -8 10
27 -6 60 25 165 55 189 23 18 27 18 49 3 28 -18 32 -35 6 -27 -9 3 2 -5 25
-18 l41 -23 -20 -53 -20 -54 -21 19 c-12 10 -31 25 -42 33 -17 12 -17 11 3
-11 12 -14 22 -30 22 -36 0 -18 -50 -73 -66 -73 -20 0 -18 -63 2 -103 9 -18
43 -60 75 -94 83 -87 73 -98 -15 -16 -64 59 -136 112 -136 100 0 -2 24 -20 53
-40 28 -20 78 -63 110 -95 l59 -59 -32 -62 c-20 -40 -35 -59 -43 -55 -9 5 -9
4 -1 -5 9 -9 9 -23 2 -49 -11 -38 -6 -153 7 -184 7 -17 -6 -18 -191 -18 -108
0 -195 -2 -193 -5 3 -2 151 -5 329 -5 l325 -2 -2 115 c-1 123 -21 249 -53 342
-23 67 -23 68 -10 60 32 -20 80 -270 80 -417 l0 -98 226 0 226 0 -6 -25 c-9
-34 17 -34 32 0 l12 25 345 0 345 0 12 -25 c6 -14 20 -25 31 -25 15 0 18 5 13
25 l-6 24 1020 -1 c562 0 1024 2 1027 6 4 3 -150 6 -341 6 l-346 0 20 40 c11
21 20 43 20 47 -1 4 -12 -14 -26 -40 l-25 -48 -176 1 c-97 1 -171 5 -164 9 10
7 9 15 -4 41 -55 107 -71 240 -39 333 l16 47 208 0 208 0 15 -43 c15 -42 15
-42 16 -10 2 53 34 68 121 53 111 -19 170 1 170 56 0 19 6 26 31 31 17 3 33
12 36 19 8 22 -18 153 -34 169 -8 8 -10 15 -4 15 7 0 7 8 -1 25 -13 29 -12 30
24 39 23 5 31 1 53 -31 30 -44 31 -60 8 -66 -14 -4 -13 -5 4 -6 12 0 31 -13
42 -27 12 -15 21 -24 21 -20 0 4 11 -1 24 -10 16 -10 30 -12 40 -7 12 7 4 28
-49 119 l-64 111 15 43 c8 24 13 54 10 66 -7 28 -63 90 -72 81 -4 -4 -2 -7 4
-7 21 0 13 -65 -15 -121 -26 -51 -30 -54 -68 -57 -22 -1 -51 -5 -63 -8 -23 -5
-23 -6 -8 -29 l16 -25 -100 0 c-94 0 -103 2 -126 25 -36 36 -20 60 51 75 70
14 110 48 132 110 17 48 18 49 63 53 l45 3 -52 2 c-29 1 -53 6 -53 11 0 6 -27
26 -60 47 -84 52 -78 82 22 113 49 16 78 74 78 158 0 87 -15 123 -51 123 -26
0 -28 -3 -24 -27 4 -21 -3 -37 -25 -63 -36 -42 -39 -36 -5 10 29 39 31 55 9
64 -8 3 -12 2 -9 -4 3 -6 1 -10 -4 -10 -6 0 -11 5 -11 10 0 6 -10 10 -23 10
-16 0 -28 -12 -46 -46 -14 -25 -47 -66 -75 -90 l-50 -46 -29 57 c-27 54 -27
58 -10 71 16 13 15 13 -10 4 -43 -15 -49 -12 -31 15 13 20 14 31 7 48 -6 12
-7 31 -3 42 4 11 3 29 -3 40 -6 11 -10 27 -9 35 2 9 -9 26 -23 38 -14 12 -25
26 -25 31 0 17 -84 40 -125 33 -60 -10 -80 -57 -80 -185 l0 -99 -47 4 -47 3
-18 -63 c-13 -47 -22 -61 -33 -57 -8 3 0 -8 18 -25 39 -36 50 -37 62 -7 17 42
11 -10 -15 -131 -14 -64 -27 -126 -28 -137 -1 -15 -30 -34 -107 -72 -58 -29
-124 -68 -147 -88 l-41 -35 -12 34 c-6 18 -20 42 -31 52 -17 15 -16 12 5 -26
14 -25 26 -51 26 -58 0 -17 -108 -127 -117 -119 -4 4 11 26 33 50 l39 42 -37
-34 c-21 -19 -39 -33 -41 -30 -13 17 -37 101 -31 110 4 7 3 9 -4 5 -5 -3 -12
-1 -14 5 -3 8 -18 4 -47 -10 -24 -13 -45 -20 -47 -18 -3 2 -9 32 -15 66 -6 34
-20 72 -31 84 l-19 22 15 -25 c8 -14 17 -43 21 -65 3 -22 9 -52 11 -67 5 -24
-1 -30 -56 -60 -57 -31 -61 -35 -55 -63 3 -21 2 -25 -4 -15 -5 8 -13 36 -16
63 -6 39 -4 52 11 68 13 15 14 18 3 14 -13 -5 -14 3 -9 50 3 31 2 59 -3 62 -4
3 -6 23 -3 44 3 21 9 57 12 78 l5 39 -39 -19 c-34 -17 -46 -18 -88 -9 -47 11
-124 48 -124 60 0 3 -29 -3 -64 -14 l-64 -20 -9 -59 c-9 -52 -8 -59 9 -68 10
-5 18 -16 18 -23 0 -16 -38 -66 -50 -66 -5 0 2 11 15 25 14 13 25 32 25 42 -1
13 -10 8 -35 -22 -18 -21 -32 -42 -29 -46 2 -4 -2 -9 -10 -12 -7 -3 -27 -29
-43 -57 l-30 -51 -12 102 c-31 258 -113 455 -215 518 -62 39 -164 23 -215 -33
l-25 -26 -40 39 c-23 22 -53 44 -68 50 -27 10 -27 12 -26 83 2 79 -17 161 -42
182 -20 17 -97 29 -105 16z m82 -80 c13 0 27 -9 34 -21 17 -32 5 -110 -19
-129 -25 -21 -12 -50 23 -50 37 0 30 -19 -12 -37 -44 -18 -117 -13 -140 10
-14 13 -13 16 5 21 37 12 36 41 -3 96 -35 50 -38 70 -9 70 9 0 29 14 46 31 22
21 34 27 41 20 6 -6 21 -11 34 -11z m2137 -15 c13 -14 31 -25 40 -25 24 0 33
-30 13 -45 -10 -7 -17 -17 -17 -22 0 -5 -8 -17 -19 -27 -12 -11 -16 -25 -13
-42 8 -43 -57 -64 -78 -25 -13 26 -13 34 3 26 6 -4 0 3 -15 14 -30 24 -43 79
-30 126 6 22 16 32 38 36 49 11 54 10 78 -16z m-2154 -261 c0 -8 4 -14 8 -14
10 0 9 -36 -1 -46 -4 -4 -8 -2 -8 4 -1 7 -3 17 -4 22 -1 6 -3 14 -4 19 -1 10
-33 7 -50 -3 -5 -3 -11 1 -14 8 -6 15 9 22 51 23 12 0 22 -5 22 -13z m248
-337 c11 -110 18 -143 32 -157 23 -23 53 -80 43 -80 -16 0 -32 16 -42 40 -7
19 -8 8 -4 -39 5 -47 3 -62 -5 -57 -7 4 -12 3 -12 -3 0 -5 5 -11 12 -13 7 -3
8 -9 2 -20 -6 -11 -15 -13 -31 -7 -16 6 -24 21 -32 61 -30 146 -42 219 -38
225 3 5 -1 40 -9 78 -18 95 -18 103 9 108 61 13 61 14 75 -136z m-838 -38 c23
-27 39 -53 36 -56 -3 -4 -7 -4 -9 -2 -2 2 -22 28 -46 57 -24 28 -39 52 -33 52
5 0 28 -23 52 -51z m1687 -36 c-3 -10 -5 -4 -5 12 0 17 2 24 5 18 2 -7 2 -21
0 -30z m-1210 -15 c-3 -8 -6 -5 -6 6 -1 11 2 17 5 13 3 -3 4 -12 1 -19z m1253
-63 c0 -4 -9 4 -20 18 -11 14 -20 28 -20 32 0 4 9 -4 20 -18 11 -14 20 -28 20
-32z m1077 23 c-3 -7 -5 -2 -5 12 0 14 2 19 5 13 2 -7 2 -19 0 -25z m-42 2
c10 -11 16 -20 13 -20 -3 0 -13 9 -23 20 -10 11 -16 20 -13 20 3 0 13 -9 23
-20z m-1228 -47 c-3 -10 -5 -4 -5 12 0 17 2 24 5 18 2 -7 2 -21 0 -30z m1283
17 c0 -5 -7 -7 -15 -4 -8 4 -15 8 -15 10 0 2 7 4 15 4 8 0 15 -4 15 -10z
m-2183 -92 c-2 -18 -4 -6 -4 27 0 33 2 48 4 33 2 -15 2 -42 0 -60z m2202 42
c11 -24 11 -24 -3 -6 -9 11 -16 24 -16 30 0 12 5 7 19 -24z m-1312 -132 c-2
-29 -3 -8 -3 47 0 55 1 79 3 53 2 -26 2 -71 0 -100z m963 122 c-8 -5 -19 -10
-25 -10 -5 0 -3 5 5 10 8 5 20 10 25 10 6 0 3 -5 -5 -10z m-40 -14 c0 -2 -7
-7 -16 -10 -8 -3 -12 -2 -9 4 6 10 25 14 25 6z m430 -31 c13 -14 21 -25 18
-25 -2 0 -15 11 -28 25 -13 14 -21 25 -18 25 2 0 15 -11 28 -25z m-510 -30
c-24 -25 -46 -45 -49 -45 -3 0 15 20 39 45 24 25 46 45 49 45 3 0 -15 -20 -39
-45z m617 -21 c-3 -3 -12 -4 -19 -1 -8 3 -5 6 6 6 11 1 17 -2 13 -5z m-509
-141 c-4 -129 -6 -145 -40 -238 -33 -90 -35 -102 -22 -122 13 -20 13 -23 -2
-23 -14 0 -16 -10 -12 -65 2 -41 10 -71 19 -81 15 -14 20 -8 59 60 56 98 64
91 10 -7 l-41 -75 23 -16 c21 -15 -13 -16 -431 -14 l-455 3 -45 163 -45 162
-47 0 -46 0 67 -165 67 -165 -141 1 c-94 0 -134 3 -118 9 12 5 22 14 22 21 0
22 -71 145 -130 226 l-60 82 -123 -2 c-165 -2 -167 -1 -167 108 0 89 11 115
51 115 13 0 18 4 13 13 -6 10 -4 10 7 0 17 -16 375 -19 381 -3 2 6 20 2 43
-10 46 -24 98 -21 171 10 36 16 44 24 45 47 2 27 2 27 6 3 9 -56 25 -88 59
-121 32 -31 40 -34 112 -37 76 -4 78 -5 159 -63 l83 -58 16 31 c16 31 16 33
-7 48 -12 8 -32 23 -43 32 -21 16 -21 16 9 50 l30 33 -33 -29 c-23 -22 -35
-27 -43 -19 -8 8 -3 16 21 28 58 30 74 28 95 -12 26 -47 92 -112 122 -119 13
-4 25 -5 26 -3 2 2 46 54 99 114 106 122 210 225 228 225 8 0 10 -40 8 -137z
m570 130 c-10 -2 -26 -2 -35 0 -10 3 -2 5 17 5 19 0 27 -2 18 -5z m-2411 -70
c-2 -16 -4 -5 -4 22 0 28 2 40 4 28 2 -13 2 -35 0 -50z m2606 60 c-29 -2 -77
-2 -105 0 -29 2 -6 3 52 3 58 0 81 -1 53 -3z m-963 -46 c0 -1 -39 -41 -87 -87
l-88 -85 85 88 c79 81 90 92 90 84z m826 -140 c4 -4 -27 -23 -70 -42 -62 -29
-87 -35 -128 -33 l-50 3 65 46 c64 44 68 45 121 39 30 -3 58 -9 62 -13z
m-1016 -61 c0 -2 -8 -10 -17 -17 -16 -13 -17 -12 -4 4 13 16 21 21 21 13z
m-1364 -37 c20 -17 17 -73 -6 -111 -23 -38 -27 -112 -8 -153 14 -32 56 -55 98
-55 34 0 34 3 19 -56 l-11 -44 -156 0 -156 0 36 38 c63 64 83 115 83 209 0 75
-2 85 -32 127 l-32 45 42 10 c49 11 103 7 123 -10z m302 -333 c15 -8 51 -30
81 -50 l53 -36 -151 0 c-98 0 -151 4 -151 10 0 6 9 29 20 50 20 39 22 40 71
40 27 0 62 -6 77 -14z"/>
<path d="M883 1616 c5 -14 49 -15 54 -1 1 6 -11 10 -27 11 -19 1 -29 -3 -27
-10z"/>
<path d="M3058 1673 c7 -3 16 -2 19 1 4 3 -2 6 -13 5 -11 0 -14 -3 -6 -6z"/>
<path d="M3015 1649 c-4 -6 -5 -12 -2 -15 2 -3 7 2 10 11 7 17 1 20 -8 4z"/>
<path d="M2329 513 c-13 -16 -12 -17 4 -4 16 13 21 21 13 21 -2 0 -10 -8 -17
-17z"/>
<path d="M1506 357 c29 -38 72 -105 97 -148 44 -78 44 -79 62 -59 27 30 30
119 8 205 l-18 70 -100 0 -101 1 52 -69z"/>
<path d="M2647 1820 c6 -8 13 -24 16 -35 4 -19 5 -19 6 2 0 12 4 23 9 26 4 2
2 3 -4 1 -6 -1 -18 3 -25 9 -10 10 -11 9 -2 -3z"/>
<path d="M1607 1781 c-4 -17 -3 -21 5 -13 5 5 8 16 6 23 -3 8 -7 3 -11 -10z"/>
<path d="M2575 1790 c-6 -9 11 -50 21 -50 2 0 0 9 -6 20 -6 11 -8 25 -5 30 3
6 4 10 1 10 -3 0 -8 -4 -11 -10z"/>
<path d="M3486 1785 c-9 -26 -7 -32 5 -12 6 10 9 21 6 23 -2 3 -7 -2 -11 -11z"/>
<path d="M1193 1775 c-36 -15 -73 -68 -73 -103 0 -31 25 -77 51 -96 15 -10 19
-20 14 -35 -7 -25 3 -27 31 -6 10 8 33 15 51 15 17 0 43 4 56 9 20 8 29 6 44
-11 24 -27 90 -57 128 -58 17 0 39 -7 49 -15 31 -23 47 -19 40 10 -5 19 1 33
25 60 17 20 31 46 30 58 -1 17 -3 16 -10 -9 -5 -16 -20 -41 -34 -54 -14 -13
-25 -34 -25 -48 0 -24 -1 -24 -25 -8 -13 9 -37 16 -52 16 -33 0 -103 31 -121
52 -11 13 -9 22 13 54 19 28 25 48 23 80 -2 23 -5 40 -7 38 -2 -2 -10 5 -17
15 -33 46 -127 64 -191 36z m27 -110 c0 -8 -9 -15 -20 -15 -11 0 -20 7 -20 15
0 8 9 15 20 15 11 0 20 -7 20 -15z m60 0 c0 -8 -6 -15 -14 -15 -17 0 -28 14
-19 24 12 12 33 6 33 -9z m58 -2 c-4 -22 -22 -20 -26 1 -2 10 3 16 13 16 10 0
15 -7 13 -17z"/>
<path d="M1649 1753 c-13 -16 -12 -17 4 -4 9 7 17 15 17 17 0 8 -8 3 -21 -13z"/>
<path d="M1431 1741 c-10 -6 -1 -8 26 -4 63 8 109 -4 145 -40 25 -24 29 -26
17 -8 -8 13 -31 33 -50 43 -36 19 -114 24 -138 9z"/>
<path d="M1658 1703 c6 -2 18 -2 25 0 6 3 1 5 -13 5 -14 0 -19 -2 -12 -5z"/>
<path d="M3451 1684 c0 -11 3 -14 6 -6 3 7 2 16 -1 19 -3 4 -6 -2 -5 -13z"/>
<path d="M2740 1676 c0 -11 30 -66 36 -66 2 0 -3 15 -12 33 -19 36 -24 44 -24
33z"/>
<path d="M1631 1644 c0 -11 3 -14 6 -6 3 7 2 16 -1 19 -3 4 -6 -2 -5 -13z"/>
<path d="M3311 1623 c-10 -26 -10 -27 4 -9 8 11 15 23 15 28 0 15 -7 8 -19
-19z"/>
<path d="M1415 1621 c-6 -11 9 -23 19 -14 9 9 7 23 -3 23 -6 0 -12 -4 -16 -9z"/>
<path d="M1482 1619 c2 -6 8 -10 13 -10 5 0 11 4 13 10 2 6 -4 11 -13 11 -9 0
-15 -5 -13 -11z"/>
<path d="M1542 1619 c2 -6 8 -10 13 -10 5 0 11 4 13 10 2 6 -4 11 -13 11 -9 0
-15 -5 -13 -11z"/>
<path d="M2800 1575 c13 -14 26 -25 28 -25 3 0 -5 11 -18 25 -13 14 -26 25
-28 25 -3 0 5 -11 18 -25z"/>
<path d="M2660 1584 c0 -6 7 -19 16 -30 14 -18 14 -18 3 6 -14 31 -19 36 -19
24z"/>
<path d="M2700 1506 c0 -2 8 -10 18 -17 15 -13 16 -12 3 4 -13 16 -21 21 -21
13z"/>
<path d="M1691 1384 c0 -11 3 -14 6 -6 3 7 2 16 -1 19 -3 4 -6 -2 -5 -13z"/>
<path d="M1683 1305 c0 -27 2 -38 4 -22 2 15 2 37 0 50 -2 12 -4 0 -4 -28z"/>
<path d="M1697 1239 c7 -7 15 -10 18 -7 3 3 -2 9 -12 12 -14 6 -15 5 -6 -5z"/>
<path d="M618 1133 c7 -3 16 -2 19 1 4 3 -2 6 -13 5 -11 0 -14 -3 -6 -6z"/>
<path d="M658 1133 c7 -3 16 -2 19 1 4 3 -2 6 -13 5 -11 0 -14 -3 -6 -6z"/>
<path d="M3688 1133 c7 -3 16 -2 19 1 4 3 -2 6 -13 5 -11 0 -14 -3 -6 -6z"/>
<path d="M630 966 c0 -2 7 -7 16 -10 8 -3 12 -2 9 4 -6 10 -25 14 -25 6z"/>
<path d="M2164 959 c-11 -18 14 -35 29 -20 10 10 9 11 -5 6 -20 -8 -25 10 -5
18 9 4 9 6 0 6 -6 1 -15 -4 -19 -10z"/>
<path d="M341 867 c2 -1 13 -9 24 -17 19 -14 19 -14 6 3 -7 9 -18 17 -24 17
-6 0 -8 -1 -6 -3z"/>
<path d="M3708 763 c7 -3 16 -2 19 1 4 3 -2 6 -13 5 -11 0 -14 -3 -6 -6z"/>
<path d="M135 721 c-8 -15 3 -31 21 -31 9 0 14 7 12 17 -4 20 -24 28 -33 14z"/>
<path d="M200 686 c0 -3 9 -10 20 -16 11 -6 20 -8 20 -6 0 3 -9 10 -20 16 -11
6 -20 8 -20 6z"/>
<path d="M17 485 c-8 -19 8 -28 34 -20 19 7 20 7 2 21 -23 17 -30 17 -36 -1z"/>
<path d="M2973 473 c31 -2 83 -2 115 0 31 2 5 3 -58 3 -63 0 -89 -1 -57 -3z"/>
<path d="M3350 359 c0 -42 -7 -96 -15 -119 -8 -24 -14 -45 -11 -47 2 -2 17 12
35 32 25 29 31 44 31 83 -1 26 -9 65 -20 87 l-19 40 -1 -76z"/>
<path d="M260 410 c8 -5 20 -10 25 -10 6 0 3 5 -5 10 -8 5 -19 10 -25 10 -5 0
-3 -5 5 -10z"/>
<path d="M340 376 c0 -3 9 -10 20 -16 11 -6 20 -8 20 -6 0 3 -9 10 -20 16 -11
6 -20 8 -20 6z"/>
</g>
</svg>
