<?xml version="1.0" standalone="no"?>
<!DOCTYPE svg PUBLIC "-//W3C//DTD SVG 20010904//EN"
 "http://www.w3.org/TR/2001/REC-SVG-20010904/DTD/svg10.dtd">
<svg version="1.0" xmlns="http://www.w3.org/2000/svg"
 width="201.000000pt" height="400.000000pt" viewBox="0 0 201.000000 400.000000"
 preserveAspectRatio="xMidYMid meet">

<g transform="translate(0.000000,400.000000) scale(0.100000,-0.100000)"
fill="#000000" stroke="none">
<path d="M717 3980 c-90 -23 -197 -106 -197 -154 0 -28 35 -60 86 -76 27 -9
34 -16 28 -29 -3 -9 -17 -49 -29 -88 -13 -40 -37 -97 -54 -127 -24 -41 -31
-66 -31 -106 0 -45 4 -56 33 -85 l33 -33 -32 -36 c-52 -61 -67 -134 -68 -336
0 -96 5 -207 12 -245 6 -39 18 -172 27 -295 8 -124 22 -256 30 -294 l15 -69
-220 -728 c-121 -401 -217 -735 -214 -743 3 -7 -4 -46 -16 -87 -23 -84 -23
-87 -11 -74 4 6 16 41 26 78 20 76 13 74 110 33 38 -16 62 -21 66 -15 4 7 9 5
12 -5 3 -8 22 -18 41 -22 20 -3 36 -10 36 -15 0 -5 -14 -43 -30 -85 -17 -42
-28 -79 -26 -82 6 -5 17 20 56 117 17 44 19 46 51 41 71 -10 260 -5 267 7 5 7
53 157 107 333 55 176 102 320 106 320 8 0 10 -10 89 -320 33 -129 70 -268 82
-308 20 -70 22 -72 62 -83 23 -7 82 -15 131 -18 l90 -6 43 -88 c53 -108 68
-109 18 -2 -20 43 -36 82 -36 86 0 5 31 9 69 9 37 0 92 5 121 10 39 7 56 7 61
-1 4 -7 17 -49 29 -95 13 -46 26 -84 30 -84 4 0 -3 37 -16 82 -29 100 -30 115
-4 123 11 3 20 14 20 24 0 10 -77 268 -170 572 -94 305 -207 680 -251 833
l-80 280 21 125 c12 72 27 130 34 136 10 8 12 25 9 56 -4 35 -2 47 10 52 10 4
17 -2 20 -15 4 -15 11 -18 29 -13 60 17 86 35 91 64 5 25 12 30 39 33 38 3 51
33 19 43 -11 3 -36 17 -57 31 -21 15 -66 31 -103 38 -50 9 -67 17 -69 30 -3
15 0 17 20 10 100 -36 205 38 283 200 41 84 95 262 95 313 0 13 8 24 20 28 18
6 20 14 19 63 -1 31 -5 62 -9 67 -4 6 -10 24 -14 40 -4 17 -13 37 -21 45 -7 8
-18 32 -25 53 -6 21 -19 41 -27 44 -21 8 -134 -28 -141 -45 -3 -8 4 -43 15
-78 19 -57 19 -63 5 -66 -13 -3 -17 -15 -17 -58 0 -43 -8 -73 -38 -135 -21
-44 -50 -95 -64 -113 l-25 -34 -33 81 c-48 118 -91 187 -135 218 -45 32 -48
39 -20 48 24 8 39 59 29 102 -4 18 -21 49 -38 68 -47 54 -71 108 -77 177 -8
79 -29 125 -64 143 -19 10 -30 25 -34 48 -6 35 -24 56 -62 75 -30 16 -143 23
-187 12z m200 -36 c18 -14 29 -32 31 -52 3 -31 2 -32 -36 -32 -62 0 -131 -32
-228 -105 -17 -12 -115 19 -138 44 -17 19 -17 21 0 50 21 36 88 86 141 106 59
22 194 16 230 -11z m109 -271 c35 -120 16 -250 -42 -288 -96 -63 -263 5 -280
113 -5 30 -11 42 -23 42 -38 0 -56 55 -26 80 12 10 19 10 27 2 19 -19 26 -14
38 22 18 56 52 79 126 87 43 4 75 14 93 27 l26 21 22 -25 c13 -14 30 -50 39
-81z m574 -173 c0 -5 -4 -10 -10 -10 -5 0 -10 5 -10 10 0 6 5 10 10 10 6 0 10
-4 10 -10z m55 -80 c3 -6 -1 -13 -10 -16 -19 -8 -30 0 -20 15 8 14 22 14 30 1z
m15 -45 c0 -10 -10 -15 -26 -15 -22 0 -25 2 -14 15 7 8 19 15 26 15 8 0 14 -7
14 -15z m-705 -51 c30 -30 30 -36 8 -56 -38 -33 -112 -30 -168 6 -22 15 -22
16 -7 48 16 33 17 33 80 30 51 -3 68 -8 87 -28z m715 12 c0 -21 -20 -30 -33
-17 -9 9 -8 14 3 21 21 14 30 12 30 -4z m-176 -12 c9 -9 16 -32 16 -54 0 -31
3 -38 15 -33 11 4 19 -4 27 -24 11 -29 13 -29 37 -17 30 16 51 18 51 5 0 -26
-53 -215 -76 -271 -76 -182 -196 -275 -297 -229 -21 9 -26 22 -36 93 l-12 81
76 80 c95 98 178 254 175 327 -3 67 -2 68 24 42z m186 -34 c0 -5 -7 -10 -15
-10 -8 0 -15 5 -15 10 0 6 7 10 15 10 8 0 15 -4 15 -10z m-935 -495 c11 -102
9 -101 225 -120 219 -19 358 -40 406 -60 l35 -14 -3 -62 c-2 -39 -8 -64 -15
-67 -9 -2 -11 6 -8 30 l5 33 -11 -35 c-16 -52 -29 -60 -29 -18 0 20 -5 40 -11
44 -8 4 -9 0 -4 -15 7 -24 -2 -61 -16 -61 -5 0 -9 11 -9 24 0 14 -5 28 -12 32
-8 5 -9 2 -5 -9 3 -10 5 -17 4 -18 -1 0 -141 -3 -310 -5 l-309 -5 -54 26 c-40
20 -61 38 -79 70 -29 48 -55 156 -55 227 l0 46 78 7 c42 3 88 7 102 9 71 8 67
11 75 -59z m720 -225 c30 -12 25 -30 -9 -30 -15 0 -26 7 -29 20 -6 23 0 24 38
10z m-698 -302 c-3 -7 -5 -2 -5 12 0 14 2 19 5 13 2 -7 2 -19 0 -25z m150 -15
c-3 -10 -5 -4 -5 12 0 17 2 24 5 18 2 -7 2 -21 0 -30z m-68 -198 c24 0 50 47
65 115 8 36 14 57 15 48 3 -45 -23 -122 -51 -154 -30 -34 -30 -36 -18 -77 6
-23 103 -294 215 -602 203 -561 320 -903 313 -910 -2 -2 -30 76 -62 173 -32
97 -150 429 -261 737 -199 550 -296 831 -294 857 0 7 15 -32 33 -87 19 -62 37
-100 45 -100z m-156 -500 c-8 -25 -17 -45 -20 -45 -4 0 2 25 18 68 16 42 18
22 2 -23z m-49 -139 c-14 -42 -28 -75 -30 -73 -2 2 8 38 22 81 14 42 28 75 30
73 2 -2 -8 -38 -22 -81z m-60 -170 c-14 -42 -28 -75 -30 -73 -2 2 8 38 22 81
14 42 28 75 30 73 2 -2 -8 -38 -22 -81z m-60 -170 c-14 -42 -28 -75 -30 -73
-2 2 8 38 22 81 14 42 28 75 30 73 2 -2 -8 -38 -22 -81z m-60 -170 c-14 -42
-28 -75 -30 -73 -2 2 8 38 22 81 14 42 28 75 30 73 2 -2 -8 -38 -22 -81z m-60
-170 c-14 -42 -28 -75 -30 -73 -2 2 8 38 22 81 14 42 28 75 30 73 2 -2 -8 -38
-22 -81z m-60 -170 c-14 -42 -28 -75 -30 -73 -2 2 8 38 22 81 14 42 28 75 30
73 2 -2 -8 -38 -22 -81z m1070 -176 c4 -24 3 -29 -3 -15 -4 11 -11 36 -15 55
-4 24 -3 29 3 15 4 -11 11 -36 15 -55z"/>
<path d="M966 3652 c-2 -4 7 -9 20 -10 15 -1 22 2 19 8 -7 12 -32 13 -39 2z"/>
<path d="M800 3631 c0 -5 9 -7 20 -4 11 3 20 7 20 9 0 2 -9 4 -20 4 -11 0 -20
-4 -20 -9z"/>
<path d="M967 3613 c-3 -5 8 -8 24 -9 15 -1 26 3 23 7 -6 11 -41 12 -47 2z"/>
<path d="M660 3590 c0 -5 5 -10 10 -10 6 0 10 5 10 10 0 6 -4 10 -10 10 -5 0
-10 -4 -10 -10z"/>
<path d="M822 3588 c-19 -19 -14 -33 6 -16 9 9 23 13 31 10 8 -3 11 0 7 7 -9
14 -29 14 -44 -1z"/>
<path d="M921 3573 c0 -17 5 -33 12 -36 9 -3 9 -7 -2 -20 -9 -12 -10 -17 -2
-17 17 0 25 28 13 43 -6 6 -12 23 -15 37 -4 22 -4 21 -6 -7z"/>
<path d="M902 3473 c-36 -3 -55 -9 -59 -20 -8 -22 15 -33 69 -33 62 0 100 15
96 38 -3 19 -21 21 -106 15z m98 -14 c0 -5 -4 -7 -10 -4 -5 3 -10 1 -10 -5 0
-6 -4 -8 -10 -5 -5 3 -10 1 -10 -4 0 -6 -4 -11 -10 -11 -5 0 -10 6 -10 14 0
13 9 17 53 25 4 0 7 -4 7 -10z m-109 -9 c5 0 9 -4 9 -10 0 -14 -43 -6 -48 10
-3 9 1 11 12 7 10 -4 22 -7 27 -7z m39 -5 c0 -8 -4 -15 -10 -15 -5 0 -10 7
-10 15 0 8 5 15 10 15 6 0 10 -7 10 -15z"/>
<path d="M22 252 c-6 -2 -12 -8 -12 -13 0 -14 471 -241 487 -235 24 10 13 27
-29 45 -24 11 -131 61 -238 113 -107 52 -201 93 -208 90z"/>
<path d="M355 220 c-4 -6 7 -10 25 -10 18 0 29 4 25 10 -3 6 -15 10 -25 10
-10 0 -22 -4 -25 -10z"/>
<path d="M405 180 c-4 -6 7 -10 27 -10 25 0 29 3 18 10 -19 13 -37 13 -45 0z"/>
<path d="M1765 159 c-11 -16 -2 -17 25 -2 24 12 24 13 3 13 -12 0 -25 -5 -28
-11z"/>
<path d="M1838 149 c-27 -15 -21 -29 7 -16 14 7 25 15 25 20 0 10 -11 8 -32
-4z"/>
<path d="M1440 25 c0 -13 37 -15 270 -15 233 0 270 2 270 15 0 13 -37 15 -270
15 -233 0 -270 -2 -270 -15z"/>
</g>
</svg>
