<?xml version="1.0" standalone="no"?>
<!DOCTYPE svg PUBLIC "-//W3C//DTD SVG 20010904//EN"
 "http://www.w3.org/TR/2001/REC-SVG-20010904/DTD/svg10.dtd">
<svg version="1.0" xmlns="http://www.w3.org/2000/svg"
 width="400.000000pt" height="245.000000pt" viewBox="0 0 400.000000 245.000000"
 preserveAspectRatio="xMidYMid meet">

<g transform="translate(0.000000,245.000000) scale(0.100000,-0.100000)"
fill="#000000" stroke="none">
<path d="M965 2420 c-11 -4 -31 -20 -45 -35 l-25 -27 4 -293 3 -293 -23 -7
c-13 -4 -31 -13 -39 -20 -8 -7 -46 -15 -85 -18 -84 -6 -159 -28 -206 -60 -34
-23 -34 -23 -34 -103 0 -120 -9 -125 -122 -68 -41 22 -78 34 -87 31 -41 -16
-54 -100 -41 -255 9 -108 11 -107 -92 -70 -76 27 -110 19 -135 -32 -25 -49
-24 -190 1 -295 20 -81 70 -211 96 -252 20 -30 19 -33 -11 -33 -19 0 -28 -8
-40 -36 -8 -20 -13 -41 -12 -46 2 -6 10 8 16 31 l13 41 224 0 223 0 10 -27 c7
-18 11 -22 11 -10 1 13 10 17 36 17 l35 0 0 -225 0 -225 -70 0 c-38 0 -70 3
-70 8 0 4 7 18 16 30 9 13 14 25 12 28 -3 2 -13 -12 -24 -31 l-19 -35 -239 0
c-131 1 -241 -2 -244 -5 -3 -3 139 -5 316 -5 l321 0 4 -47 3 -48 2 48 2 47
129 0 130 0 4 -52 3 -53 2 53 2 52 110 0 110 0 -1 33 c-2 30 -2 30 -6 5 l-4
-28 -105 0 -104 0 0 225 0 225 105 0 c105 0 106 0 116 26 5 15 8 28 7 30 -2 2
-24 -2 -48 -7 -25 -6 -94 -9 -155 -7 -96 3 -117 7 -166 31 -31 15 -66 27 -79
27 -23 0 -23 0 -4 23 l19 22 -26 -23 c-20 -17 -37 -22 -82 -22 -59 0 -63 -4
-59 -60 0 -3 -34 -6 -76 -8 l-77 -4 70 50 c119 84 205 192 205 258 0 18 -15
39 -51 73 -45 42 -50 50 -40 69 10 18 66 40 76 30 3 -2 12 -42 22 -89 l18 -84
229 -3 229 -2 -7 66 c-6 60 -5 66 9 54 12 -10 19 -9 40 4 23 15 30 32 26 64
-2 16 26 16 32 0 4 -10 6 -10 6 0 1 7 -7 15 -16 18 -10 3 -26 10 -35 15 -10 5
-26 9 -35 8 -12 -1 -9 -3 7 -8 21 -6 25 -14 27 -46 2 -31 0 -35 -7 -20 -8 19
-9 18 -10 -5 -1 -23 -2 -23 -10 -5 -8 18 -9 18 -9 -5 -1 -14 -4 -20 -9 -14 -5
9 -30 8 -97 -2 -185 -28 -310 -12 -359 47 -24 28 -54 104 -45 113 2 3 37 6 77
7 68 2 74 1 85 -21 16 -33 42 -38 186 -39 l124 -1 -6 30 c-6 28 -5 29 26 25
l32 -5 -32 10 c-23 7 -33 17 -33 30 0 26 30 100 40 100 21 0 -9 40 -64 86
l-61 50 -5 125 c-6 154 -11 163 -102 193 -17 5 -18 28 -18 296 0 181 4 299 10
311 27 50 2 49 975 49 968 0 958 1 984 -48 7 -13 11 -96 12 -214 1 -136 4
-184 10 -161 5 18 14 35 19 38 18 11 50 14 55 4 4 -5 17 -9 30 -9 15 0 31 -10
41 -25 10 -15 26 -25 40 -25 33 0 40 -18 15 -41 -12 -11 -21 -26 -21 -33 0
-17 -42 -56 -61 -56 -11 0 -11 -2 -1 -8 10 -7 8 -12 -5 -23 -51 -42 -51 -42
-68 -12 -15 26 -15 19 0 -19 4 -11 0 -20 -15 -28 -29 -16 -34 -8 -23 37 6 27
15 39 33 44 16 5 19 7 8 8 -10 1 -27 10 -38 21 l-20 20 0 -34 c0 -28 -5 -36
-31 -46 -16 -7 -41 -27 -53 -44 -27 -36 -41 -70 -25 -61 5 4 21 4 35 1 l25 -7
-3 -157 -3 -157 -52 -3 -53 -3 0 -44 c0 -40 2 -44 27 -47 26 -3 28 -8 39 -73
11 -68 10 -74 -28 -210 -21 -77 -48 -168 -59 -203 l-21 -62 -298 0 c-274 0
-300 1 -309 18 -6 9 -11 12 -11 6 -1 -31 25 -34 321 -34 l296 0 -79 -256 c-43
-141 -77 -258 -74 -261 9 -9 81 -23 124 -23 24 0 42 -5 42 -11 0 -8 4 -8 13
-1 6 5 39 12 71 14 40 3 63 10 71 22 7 9 29 81 48 159 20 78 42 160 50 182
l14 39 22 -74 c19 -62 21 -80 12 -111 -26 -86 -7 -198 45 -266 l25 -33 -195 0
c-182 0 -195 1 -189 17 8 22 -1 15 -15 -12 -10 -20 -7 -20 202 -17 l212 3 24
-26 c29 -31 79 -34 98 -5 7 11 19 20 27 20 8 0 15 5 15 10 0 6 7 10 15 10 9 0
12 6 9 15 -4 8 -1 15 5 15 6 0 2 19 -9 45 -15 34 -16 47 -7 50 6 2 37 13 67
24 57 22 70 18 70 -21 0 -10 14 -33 31 -52 17 -20 28 -39 25 -44 -2 -4 -61
-34 -130 -67 -69 -32 -126 -62 -126 -67 0 -11 32 -2 82 23 21 11 41 19 45 18
5 -1 61 -1 125 0 117 1 118 1 124 26 6 25 6 25 143 27 l136 2 -132 3 -133 4 6
42 c3 23 1 69 -5 101 -8 44 -8 63 0 73 9 10 9 12 -3 8 -17 -7 -68 82 -68 118
0 12 21 44 48 72 l47 50 -47 -45 c-74 -68 -57 -29 22 52 96 99 99 111 74 306
l-7 52 76 74 c93 90 111 123 111 198 -1 63 -20 102 -59 120 -60 27 -145 -44
-189 -158 -37 -97 -78 -135 -166 -149 -60 -10 -142 -41 -174 -66 l-26 -20 0
190 0 191 31 0 c52 0 110 22 127 49 23 34 20 122 -7 192 -26 68 -113 175 -177
218 -27 17 -72 39 -101 47 -29 9 -53 19 -53 24 0 16 51 49 66 43 18 -7 62 32
77 67 31 72 -6 174 -75 209 -70 34 -175 13 -205 -41 -10 -20 -12 -5 -13 102 0
137 -7 157 -60 185 -25 13 -151 15 -942 14 -502 0 -922 -4 -933 -9z m1950
-569 c3 -5 1 -12 -5 -16 -5 -3 -10 1 -10 9 0 18 6 21 15 7z m132 -68 c-13 -43
-31 -51 -57 -28 -20 18 -19 19 18 50 42 37 55 30 39 -22z m-74 -49 c-1 -15 4
-69 11 -118 12 -78 12 -93 0 -107 -13 -15 -8 -17 55 -23 l70 -7 -6 -52 c-3
-29 -7 -53 -8 -55 -2 -2 -35 13 -74 32 -39 20 -82 36 -96 36 -15 0 -24 4 -20
10 4 6 -7 10 -27 10 l-33 1 23 19 c13 11 21 24 17 30 -4 6 8 56 25 111 17 56
29 107 26 114 -5 15 14 37 29 32 5 -3 9 -17 8 -33z m-1988 -48 c27 -27 40 -81
32 -133 -9 -54 -32 -73 -89 -73 -41 0 -54 5 -79 29 -16 16 -29 39 -29 50 0 12
-6 21 -15 21 -9 0 -15 9 -15 25 0 24 3 26 38 24 34 -2 43 2 77 39 20 23 42 42
47 42 5 0 20 -11 33 -24z m2210 -186 c3 -5 1 -10 -4 -10 -6 0 -11 5 -11 10 0
6 2 10 4 10 3 0 8 -4 11 -10z m-2237 -52 c-2 -18 -11 -24 -35 -26 -30 -3 -33
-1 -33 22 0 23 4 26 36 26 31 0 35 -3 32 -22z m-270 -63 c-6 -14 -15 -25 -20
-25 -11 0 -10 7 2 31 16 28 32 23 18 -6z m279 -57 c4 -7 6 -21 5 -30 -2 -11 3
-18 12 -18 22 0 20 -13 -11 -73 l-28 -52 -3 38 c-2 24 -8 37 -18 37 -10 0 -14
13 -14 48 0 27 3 52 7 55 11 11 41 8 50 -5z m2253 -210 c0 -105 -2 -189 -5
-186 -3 2 -16 41 -29 85 -19 64 -22 89 -15 119 5 22 9 62 9 91 0 61 7 83 26
83 11 0 14 -35 14 -192z m-253 70 c-3 -7 -5 -2 -5 12 0 14 2 19 5 13 2 -7 2
-19 0 -25z m753 -14 c0 -3 -22 -31 -49 -62 -114 -132 -236 -342 -299 -516 -16
-43 -32 -75 -35 -70 -7 13 54 168 108 273 82 159 275 422 275 375z m-2810
-839 l0 -225 -130 0 -130 0 0 225 0 225 130 0 130 0 0 -225z"/>
<path d="M2913 1503 c9 -2 25 -2 35 0 9 3 1 5 -18 5 -19 0 -27 -2 -17 -5z"/>
<path d="M950 1636 c0 -2 9 -6 20 -9 11 -3 18 -1 14 4 -5 9 -34 13 -34 5z"/>
<path d="M942 1609 c2 -6 8 -10 13 -10 5 0 11 4 13 10 2 6 -4 11 -13 11 -9 0
-15 -5 -13 -11z"/>
<path d="M860 1601 c0 -16 28 -20 34 -5 4 9 -1 14 -14 14 -11 0 -20 -4 -20 -9z"/>
<path d="M921 1600 c0 -8 4 -22 9 -30 12 -18 12 -2 0 25 -6 13 -9 15 -9 5z"/>
<path d="M922 1542 c-20 -2 -32 -8 -29 -15 5 -18 52 -20 66 -3 15 18 5 22 -37
18z m21 -19 c-7 -2 -19 -2 -25 0 -7 3 -2 5 12 5 14 0 19 -2 13 -5z"/>
<path d="M1032 2328 c-19 -19 -14 -46 9 -59 18 -9 25 -7 41 9 16 16 18 23 9
41 -13 23 -40 28 -59 9z"/>
<path d="M1156 2331 c-3 -4 6 -6 19 -3 19 3 27 -1 34 -19 6 -14 10 -18 10 -8
2 30 -48 54 -63 30z"/>
<path d="M1309 2329 c18 -7 22 -15 19 -34 -3 -13 -1 -22 3 -19 24 15 0 65 -30
63 -10 0 -6 -4 8 -10z"/>
<path d="M1140 2303 c0 -15 28 -43 43 -43 7 0 4 5 -5 11 -10 5 -22 17 -27 27
-6 9 -11 12 -11 5z"/>
<path d="M2915 1980 c-3 -6 1 -7 9 -4 18 7 21 14 7 14 -6 0 -13 -4 -16 -10z"/>
<path d="M3010 1986 c0 -2 7 -7 16 -10 8 -3 12 -2 9 4 -6 10 -25 14 -25 6z"/>
<path d="M2882 1925 c0 -16 2 -22 5 -12 2 9 2 23 0 30 -3 6 -5 -1 -5 -18z"/>
<path d="M2960 1880 c0 -5 5 -10 10 -10 6 0 10 5 10 10 0 6 -4 10 -10 10 -5 0
-10 -4 -10 -10z"/>
<path d="M1936 1611 c-4 -5 3 -7 14 -4 23 6 26 13 6 13 -8 0 -17 -4 -20 -9z"/>
<path d="M2603 1571 c-43 -36 -17 -83 36 -66 27 8 34 34 16 61 -18 29 -23 29
-52 5z m47 -12 c14 -25 -2 -49 -32 -49 -27 0 -34 28 -12 50 25 24 31 24 44 -1z"/>
<path d="M1886 1535 c-11 -8 -15 -15 -9 -15 6 0 16 7 23 15 16 19 11 19 -14 0z"/>
<path d="M2080 1540 c-8 -5 -12 -12 -9 -15 4 -3 12 1 19 10 14 17 11 19 -10 5z"/>
<path d="M1539 1503 c-13 -16 -12 -17 4 -4 9 7 17 15 17 17 0 8 -8 3 -21 -13z"/>
<path d="M2127 1486 c-7 -17 18 -40 33 -31 5 3 10 15 10 26 0 23 -35 27 -43 5z"/>
<path d="M2200 1491 c0 -5 9 -7 20 -4 11 3 20 7 20 9 0 2 -9 4 -20 4 -11 0
-20 -4 -20 -9z"/>
<path d="M2273 1485 c-3 -9 -3 -18 -1 -21 3 -3 8 4 11 16 6 23 -1 27 -10 5z"/>
<path d="M2304 1492 c4 -7 2 -21 -5 -30 -12 -15 -11 -15 6 0 16 15 17 20 6 30
-11 11 -13 10 -7 0z"/>
<path d="M2235 1469 c-4 -6 -14 -8 -24 -4 -13 5 -14 4 -3 -6 10 -11 15 -10 29
4 10 9 14 17 11 17 -4 0 -10 -5 -13 -11z"/>
<path d="M1470 1440 c0 -5 5 -10 11 -10 5 0 7 5 4 10 -3 6 -8 10 -11 10 -2 0
-4 -4 -4 -10z"/>
<path d="M1528 1423 c6 -2 18 -2 25 0 6 3 1 5 -13 5 -14 0 -19 -2 -12 -5z"/>
<path d="M1658 1413 c17 -2 47 -2 65 0 17 2 3 4 -33 4 -36 0 -50 -2 -32 -4z"/>
<path d="M2108 1403 c56 -2 148 -2 205 0 56 1 10 3 -103 3 -113 0 -159 -2
-102 -3z"/>
<path d="M2570 1395 c-8 -10 -8 -15 1 -21 7 -4 9 -3 5 4 -3 6 -2 13 4 17 5 3
10 -3 10 -14 0 -15 6 -21 21 -21 11 0 18 4 14 9 -3 5 -1 12 5 16 5 3 10 -2 10
-12 0 -14 2 -15 9 -4 7 11 9 11 14 0 4 -10 6 -9 6 3 1 9 -7 19 -16 22 -44 13
-73 14 -83 1z m45 -4 c3 -5 1 -12 -5 -16 -5 -3 -10 1 -10 9 0 18 6 21 15 7z"/>
<path d="M1388 1374 c-38 -20 -36 -28 2 -9 17 9 30 18 30 20 0 7 -1 6 -32 -11z"/>
<path d="M1498 1383 c7 -3 16 -2 19 1 4 3 -2 6 -13 5 -11 0 -14 -3 -6 -6z"/>
<path d="M1435 1363 c-4 -11 0 -11 18 -2 31 16 32 18 8 16 -11 -1 -23 -7 -26
-14z"/>
<path d="M1505 1360 c-4 -6 2 -10 12 -10 17 -1 17 -1 0 -14 -18 -14 -18 -14 0
-19 15 -3 14 -6 -7 -15 l-25 -12 25 3 c20 2 26 8 28 33 3 31 -20 55 -33 34z"/>
<path d="M1330 1340 c-9 -6 -10 -10 -3 -10 6 0 15 5 18 10 8 12 4 12 -15 0z"/>
<path d="M1275 1320 c-13 -6 -15 -9 -5 -9 8 0 22 4 30 9 18 12 2 12 -25 0z"/>
<path d="M1203 1303 c9 -2 25 -2 35 0 9 3 1 5 -18 5 -19 0 -27 -2 -17 -5z"/>
<path d="M1490 1270 c-8 -5 -10 -10 -5 -10 6 0 17 5 25 10 8 5 11 10 5 10 -5
0 -17 -5 -25 -10z"/>
<path d="M1420 1240 c-19 -11 -30 -19 -25 -19 6 0 26 8 45 19 19 11 31 19 25
19 -5 0 -26 -8 -45 -19z"/>
<path d="M1330 1200 c-8 -5 -10 -10 -5 -10 6 0 17 5 25 10 8 5 11 10 5 10 -5
0 -17 -5 -25 -10z"/>
<path d="M1288 1183 c7 -3 16 -2 19 1 4 3 -2 6 -13 5 -11 0 -14 -3 -6 -6z"/>
<path d="M1238 1173 c6 -2 18 -2 25 0 6 3 1 5 -13 5 -14 0 -19 -2 -12 -5z"/>
<path d="M1345 877 c64 -30 95 -88 95 -178 0 -25 -11 -106 -25 -180 l-25 -134
23 -90 23 -90 42 -3 c23 -2 42 -7 42 -11 0 -4 7 -16 16 -27 14 -18 15 -18 4 4
-7 13 -10 25 -8 26 2 1 39 10 82 19 84 18 126 38 126 62 0 37 -202 475 -246
532 l-25 33 303 3 303 2 -311 3 c-238 1 -319 5 -345 16 -19 7 -50 17 -69 20
l-35 7 30 -14z m113 -392 c-3 -3 -9 2 -12 12 -6 14 -5 15 5 6 7 -7 10 -15 7
-18z m9 -37 c-3 -8 -6 -5 -6 6 -1 11 2 17 5 13 3 -3 4 -12 1 -19z m58 -148 c3
-5 1 -10 -4 -10 -6 0 -11 5 -11 10 0 6 2 10 4 10 3 0 8 -4 11 -10z"/>
<path d="M3830 720 c0 -15 5 -20 18 -18 9 2 17 10 17 18 0 8 -8 16 -17 18 -13
2 -18 -3 -18 -18z"/>
<path d="M3754 674 c-32 -19 -66 -42 -74 -51 -13 -13 24 9 126 74 45 28 3 10
-52 -23z"/>
<path d="M3634 588 l-19 -23 23 19 c12 11 22 21 22 23 0 8 -8 2 -26 -19z"/>
<path d="M178 533 c34 -2 90 -2 125 0 34 2 6 3 -63 3 -69 0 -97 -1 -62 -3z"/>
<path d="M571 504 c0 -11 3 -14 6 -6 3 7 2 16 -1 19 -3 4 -6 -2 -5 -13z"/>
<path d="M62 460 c0 -19 2 -27 5 -17 2 9 2 25 0 35 -3 9 -5 1 -5 -18z"/>
<path d="M3955 480 c-3 -5 -16 -11 -28 -11 -13 -1 -8 -4 13 -8 35 -7 64 4 54
20 -7 12 -31 11 -39 -1z"/>
<path d="M583 405 c0 -44 2 -61 4 -37 2 23 2 59 0 80 -2 20 -4 1 -4 -43z"/>
<path d="M3878 453 c7 -3 16 -2 19 1 4 3 -2 6 -13 5 -11 0 -14 -3 -6 -6z"/>
<path d="M3690 390 c-8 -5 -10 -10 -5 -10 6 0 17 5 25 10 8 5 11 10 5 10 -5 0
-17 -5 -25 -10z"/>
<path d="M62 350 c0 -19 2 -27 5 -17 2 9 2 25 0 35 -3 9 -5 1 -5 -18z"/>
<path d="M3624 354 c-18 -14 -18 -15 4 -4 12 6 22 13 22 15 0 8 -5 6 -26 -11z"/>
<path d="M571 304 c0 -11 3 -14 6 -6 3 7 2 16 -1 19 -3 4 -6 -2 -5 -13z"/>
<path d="M71 300 c0 -8 6 -28 14 -45 17 -39 18 -21 0 25 -7 19 -14 28 -14 20z"/>
<path d="M542 225 c-17 -37 -14 -45 4 -12 9 16 14 31 11 33 -2 2 -9 -7 -15
-21z"/>
<path d="M100 216 c0 -11 40 -86 45 -86 3 0 -4 19 -16 43 -23 45 -29 54 -29
43z"/>
<path d="M2551 174 c0 -11 3 -14 6 -6 3 7 2 16 -1 19 -3 4 -6 -2 -5 -13z"/>
<path d="M1556 127 c3 -10 9 -15 12 -12 3 3 0 11 -7 18 -10 9 -11 8 -5 -6z"/>
<path d="M1735 120 c-3 -6 1 -7 9 -4 18 7 21 14 7 14 -6 0 -13 -4 -16 -10z"/>
<path d="M1765 110 c-3 -6 1 -7 9 -4 18 7 21 14 7 14 -6 0 -13 -4 -16 -10z"/>
<path d="M2175 110 l-360 -5 363 -3 c236 -1 362 1 362 8 0 6 -1 9 -2 8 -2 -2
-165 -5 -363 -8z"/>
<path d="M1296 95 c4 -8 11 -12 18 -7 6 4 63 10 126 13 l115 5 -132 2 c-114 2
-132 0 -127 -13z"/>
<path d="M1335 80 c-3 -6 1 -7 9 -4 18 7 21 14 7 14 -6 0 -13 -4 -16 -10z"/>
<path d="M2465 70 c3 -5 8 -10 11 -10 2 0 4 5 4 10 0 6 -5 10 -11 10 -5 0 -7
-4 -4 -10z"/>
<path d="M1663 46 c-104 -11 -148 -26 -78 -26 72 0 270 22 280 31 12 12 -70
10 -202 -5z"/>
<path d="M1115 20 c-3 -5 0 -12 7 -15 26 -10 303 0 301 10 -4 14 -299 19 -308
5z"/>
<path d="M2390 10 c0 -6 55 -10 145 -10 90 0 145 4 145 10 0 6 -55 10 -145 10
-90 0 -145 -4 -145 -10z"/>
</g>
</svg>
